<svg id="Capa_1" data-name="Capa 1" xmlns="http://www.w3.org/2000/svg" xmlns:xlink="http://www.w3.org/1999/xlink" viewBox="0 0 1365.86 396.82"><defs><style>.cls-1{fill:none;}.cls-2{fill:url(#linear-gradient);}.cls-3{fill:url(#linear-gradient-2);}.cls-4{fill:url(#linear-gradient-3);}.cls-5{fill:url(#linear-gradient-4);}.cls-6{fill:url(#linear-gradient-5);}.cls-7{fill:url(#linear-gradient-6);}.cls-8{fill:url(#linear-gradient-7);}.cls-9{fill:url(#linear-gradient-8);}.cls-10{fill:url(#linear-gradient-9);}.cls-11{fill:url(#linear-gradient-10);}.cls-12{fill:url(#linear-gradient-11);}.cls-13{fill:url(#linear-gradient-12);}.cls-14{fill:url(#linear-gradient-13);}.cls-15{fill:url(#linear-gradient-14);}.cls-16{fill:url(#linear-gradient-15);}.cls-17{fill:url(#linear-gradient-16);}.cls-18{fill:url(#linear-gradient-17);}.cls-19{fill:url(#linear-gradient-18);}.cls-20{fill:url(#linear-gradient-19);}.cls-21{fill:url(#linear-gradient-20);}.cls-22{fill:url(#linear-gradient-21);}.cls-23{fill:url(#linear-gradient-22);}.cls-24{fill:url(#linear-gradient-23);}.cls-25{fill:url(#linear-gradient-24);}.cls-26{fill:url(#linear-gradient-25);}.cls-27{fill:url(#linear-gradient-26);}.cls-28{fill:url(#linear-gradient-27);}.cls-29{fill:url(#linear-gradient-28);}.cls-30{fill:url(#linear-gradient-29);}.cls-31{fill:url(#linear-gradient-30);}.cls-32{fill:url(#linear-gradient-31);}.cls-33{fill:url(#linear-gradient-32);}.cls-34{fill:url(#linear-gradient-33);}</style><linearGradient id="linear-gradient" x1="-2643.55" y1="1843.31" x2="-532.86" y2="1843.31" gradientTransform="translate(-458.34 1996.84) rotate(180)" gradientUnits="userSpaceOnUse"><stop offset="0" stop-color="#53798d"/><stop offset="1" stop-color="#080a0e"/></linearGradient><linearGradient id="linear-gradient-2" x1="-2643.55" y1="1742.52" x2="-532.86" y2="1742.52" xlink:href="#linear-gradient"/><linearGradient id="linear-gradient-3" x1="-2643.55" y1="1772.78" x2="-532.86" y2="1772.78" xlink:href="#linear-gradient"/><linearGradient id="linear-gradient-4" x1="-2030.75" y1="1772.78" x2="-142.31" y2="1772.78" xlink:href="#linear-gradient"/><linearGradient id="linear-gradient-5" x1="-2328.98" y1="1700.11" x2="-1447.84" y2="1700.11" xlink:href="#linear-gradient"/><linearGradient id="linear-gradient-6" x1="-2328.98" y1="1742.8" x2="-1447.84" y2="1742.8" xlink:href="#linear-gradient"/><linearGradient id="linear-gradient-7" x1="-2075.02" y1="1742.8" x2="-1193.87" y2="1742.8" xlink:href="#linear-gradient"/><linearGradient id="linear-gradient-8" x1="-1140.74" y1="1762.77" x2="-315.21" y2="1762.77" xlink:href="#linear-gradient"/><linearGradient id="linear-gradient-9" x1="-2643.55" y1="1721.78" x2="-532.86" y2="1721.78" xlink:href="#linear-gradient"/><linearGradient id="linear-gradient-10" x1="-1140.74" y1="1721.78" x2="-315.21" y2="1721.78" xlink:href="#linear-gradient"/><linearGradient id="linear-gradient-11" x1="-1140.74" y1="1798.16" x2="-315.21" y2="1798.16" xlink:href="#linear-gradient"/><linearGradient id="linear-gradient-12" x1="-829.16" y1="1798.16" x2="-41.21" y2="1798.16" xlink:href="#linear-gradient"/><linearGradient id="linear-gradient-13" x1="-2643.55" y1="1728.95" x2="-532.86" y2="1728.95" xlink:href="#linear-gradient"/><linearGradient id="linear-gradient-14" x1="-1140.74" y1="1728.95" x2="-315.21" y2="1728.95" xlink:href="#linear-gradient"/><linearGradient id="linear-gradient-15" x1="-829.16" y1="1728.95" x2="-41.21" y2="1728.95" xlink:href="#linear-gradient"/><linearGradient id="linear-gradient-16" x1="-1332.87" y1="1664.18" x2="-248.55" y2="1664.18" xlink:href="#linear-gradient"/><linearGradient id="linear-gradient-17" x1="-1332.87" y1="1691.86" x2="-248.55" y2="1691.86" xlink:href="#linear-gradient"/><linearGradient id="linear-gradient-18" x1="-1646.59" y1="1691.86" x2="-599.99" y2="1691.86" xlink:href="#linear-gradient"/><linearGradient id="linear-gradient-19" x1="-2643.55" y1="1846.57" x2="-532.86" y2="1846.57" xlink:href="#linear-gradient"/><linearGradient id="linear-gradient-20" x1="388.1" y1="150.27" x2="2045.87" y2="150.27" gradientTransform="matrix(1, 0, 0, 1, 0, 0)" xlink:href="#linear-gradient"/><linearGradient id="linear-gradient-21" x1="-2643.55" y1="1855.01" x2="-532.86" y2="1855.01" xlink:href="#linear-gradient"/><linearGradient id="linear-gradient-22" x1="388.1" y1="141.83" x2="2045.87" y2="141.83" gradientTransform="matrix(1, 0, 0, 1, 0, 0)" xlink:href="#linear-gradient"/><linearGradient id="linear-gradient-23" x1="-2643.55" y1="1843.19" x2="-532.86" y2="1843.19" xlink:href="#linear-gradient"/><linearGradient id="linear-gradient-24" x1="388.1" y1="153.65" x2="2045.87" y2="153.65" gradientTransform="matrix(1, 0, 0, 1, 0, 0)" xlink:href="#linear-gradient"/><linearGradient id="linear-gradient-25" x1="-2643.55" y1="1813.19" x2="-532.86" y2="1813.19" xlink:href="#linear-gradient"/><linearGradient id="linear-gradient-26" x1="-2565.7" y1="1813.19" x2="-1330.89" y2="1813.19" xlink:href="#linear-gradient"/><linearGradient id="linear-gradient-27" x1="-2643.55" y1="1849.11" x2="-532.86" y2="1849.11" xlink:href="#linear-gradient"/><linearGradient id="linear-gradient-28" x1="-2565.7" y1="1849.11" x2="-1330.89" y2="1849.11" xlink:href="#linear-gradient"/><linearGradient id="linear-gradient-29" x1="-2643.55" y1="1867.02" x2="-532.86" y2="1867.02" xlink:href="#linear-gradient"/><linearGradient id="linear-gradient-30" x1="-2565.7" y1="1867.02" x2="-1330.89" y2="1867.02" xlink:href="#linear-gradient"/><linearGradient id="linear-gradient-31" x1="-2643.55" y1="1838.95" x2="-532.86" y2="1838.95" xlink:href="#linear-gradient"/><linearGradient id="linear-gradient-32" x1="388.1" y1="157.89" x2="2045.87" y2="157.89" gradientTransform="matrix(1, 0, 0, 1, 0, 0)" xlink:href="#linear-gradient"/><linearGradient id="linear-gradient-33" x1="-2565.7" y1="1838.95" x2="-1330.89" y2="1838.95" xlink:href="#linear-gradient"/></defs><path class="cls-1" d="M989.5,271.5c130.83-18.06,259.18-33.18,376.18-34.92V228c-423.39,9.47-991,189.13-1291.16,53.18,23.39,2.46,47.79,3.72,73.09,3.92C92.14,275.35,42.38,258.84-.18,233.82v18.07C185.43,389,529.66,339,874.53,288.27,541.87,354.33,209.75,419.77-.18,341V396.8H1365.68V342C1256,300,1124.7,283.42,989.5,271.5Z" transform="translate(0.18 0.02)"/><path class="cls-2" d="M682.4,253.52c-199.93,36.11-387.49,57.61-534.79,31.62-25.3-.2-49.7-1.46-73.09-3.92C383.49,374,925.43,192,1365.68,129.85v-12c-46.47,6.85-94,15-142.3,23.94l-.28.06q-30.52,5.67-61.39,11.74l-.49.1c-95.14,18.69-192.32,39.78-288.67,59.9l.11,0-.11,0c166.27-44.45,334.72-91.47,493.13-126.64h0V0C1025.74,92.25,653.88,222.18,353.14,268.2,453.57,274.3,565.58,266.75,682.4,253.52Z" transform="translate(0.18 0.02)"/><path class="cls-3" d="M74.52,281.22c300.14,136,867.77-43.71,1291.16-53.18V176.76C932.9,214.41,379.13,394.81,74.52,281.22Z" transform="translate(0.18 0.02)"/><path class="cls-4" d="M74.52,281.22C379.13,394.81,932.9,214.41,1365.68,176.76V129.85C925.43,192,383.49,374,74.52,281.22Z" transform="translate(0.18 0.02)"/><path class="cls-5" d="M74.52,281.22C379.13,394.81,932.9,214.41,1365.68,176.76V129.85C925.43,192,383.49,374,74.52,281.22Z" transform="translate(0.18 0.02)"/><path class="cls-6" d="M989.5,271.5C1124.7,283.42,1256,300,1365.68,342V252.63C1249.6,247.93,1120.89,258.13,989.5,271.5Z" transform="translate(0.18 0.02)"/><path class="cls-7" d="M1365.68,252.63v-16c-117,1.74-245.35,16.86-376.18,34.92C1120.89,258.13,1249.6,247.93,1365.68,252.63Z" transform="translate(0.18 0.02)"/><path class="cls-8" d="M1365.68,252.63v-16c-117,1.74-245.35,16.86-376.18,34.92C1120.89,258.13,1249.6,247.93,1365.68,252.63Z" transform="translate(0.18 0.02)"/><path class="cls-9" d="M270.7,278.82C161.07,269.68,67.68,241.38-.18,183v50.86c42.56,25,92.32,41.53,147.79,51.32C186.59,285.45,227.74,283.2,270.7,278.82Z" transform="translate(0.18 0.02)"/><path class="cls-10" d="M682.4,253.52c-148.75,22-290.2,35.42-411.7,25.3-43,4.38-84.11,6.63-123.09,6.32C294.91,311.13,482.47,289.63,682.4,253.52Z" transform="translate(0.18 0.02)"/><path class="cls-11" d="M682.4,253.52c-148.75,22-290.2,35.42-411.7,25.3-43,4.38-84.11,6.63-123.09,6.32C294.91,311.13,482.47,289.63,682.4,253.52Z" transform="translate(0.18 0.02)"/><path class="cls-12" d="M353.14,268.2C200.92,259,75.3,218.32-.18,118.53V183c67.86,58.42,161.25,86.72,270.88,95.86Q310.9,274.71,353.14,268.2Z" transform="translate(0.18 0.02)"/><path class="cls-13" d="M353.14,268.2C200.92,259,75.3,218.32-.18,118.53V183c67.86,58.42,161.25,86.72,270.88,95.86Q310.9,274.71,353.14,268.2Z" transform="translate(0.18 0.02)"/><path class="cls-14" d="M682.4,253.52C565.58,266.75,453.57,274.3,353.14,268.2q-42.19,6.46-82.44,10.62C392.2,288.94,533.65,275.54,682.4,253.52Z" transform="translate(0.18 0.02)"/><path class="cls-15" d="M682.4,253.52C565.58,266.75,453.57,274.3,353.14,268.2q-42.19,6.46-82.44,10.62C392.2,288.94,533.65,275.54,682.4,253.52Z" transform="translate(0.18 0.02)"/><path class="cls-16" d="M682.4,253.52C565.58,266.75,453.57,274.3,353.14,268.2q-42.19,6.46-82.44,10.62C392.2,288.94,533.65,275.54,682.4,253.52Z" transform="translate(0.18 0.02)"/><path class="cls-17" d="M874.53,288.27C536.48,346.94,199,404.93-.18,299.78V341C209.75,419.77,541.87,354.33,874.53,288.27Z" transform="translate(0.18 0.02)"/><path class="cls-18" d="M874.53,288.27C529.66,339,185.43,389-.18,251.89v47.89C199,404.93,536.48,346.94,874.53,288.27Z" transform="translate(0.18 0.02)"/><path class="cls-19" d="M874.53,288.27C529.66,339,185.43,389-.18,251.89v47.89C199,404.93,536.48,346.94,874.53,288.27Z" transform="translate(0.18 0.02)"/><path class="cls-20" d="M872.55,213.59l.11,0c166.51-39.68,335.34-82.1,493-111.36V87h0C1207.27,122.12,1038.82,169.14,872.55,213.59Z" transform="translate(0.18 0.02)"/><path class="cls-21" d="M872.55,213.59l.11,0c166.51-39.68,335.34-82.1,493-111.36V87h0C1207.27,122.12,1038.82,169.14,872.55,213.59Z" transform="translate(0.18 0.02)"/><path class="cls-22" d="M1223.38,141.8l-.28.06Z" transform="translate(0.18 0.02)"/><path class="cls-23" d="M1223.38,141.8l-.28.06Z" transform="translate(0.18 0.02)"/><path class="cls-24" d="M1161.71,153.6l-.49.1Z" transform="translate(0.18 0.02)"/><path class="cls-25" d="M1161.71,153.6l-.49.1Z" transform="translate(0.18 0.02)"/><path class="cls-26" d="M872.55,213.6c96.35-20.12,193.53-41.21,288.67-59.9-95.11,18.68-192.25,39.76-288.56,59.87Z" transform="translate(0.18 0.02)"/><path class="cls-27" d="M872.55,213.6c96.35-20.12,193.53-41.21,288.67-59.9-95.11,18.68-192.25,39.76-288.56,59.87Z" transform="translate(0.18 0.02)"/><path class="cls-28" d="M1223.1,141.86q-30.52,5.67-61.39,11.74Q1192.57,147.54,1223.1,141.86Z" transform="translate(0.18 0.02)"/><path class="cls-29" d="M1223.1,141.86q-30.52,5.67-61.39,11.74Q1192.57,147.54,1223.1,141.86Z" transform="translate(0.18 0.02)"/><path class="cls-30" d="M1223.38,141.8c48.27-9,95.83-17.09,142.3-23.94v0h0C1319.21,124.7,1271.64,132.84,1223.38,141.8Z" transform="translate(0.18 0.02)"/><path class="cls-31" d="M1223.38,141.8c48.27-9,95.83-17.09,142.3-23.94v0h0C1319.21,124.7,1271.64,132.84,1223.38,141.8Z" transform="translate(0.18 0.02)"/><path class="cls-32" d="M1161.22,153.7l.49-.1q30.86-6.06,61.39-11.74l.28-.06c48.26-9,95.83-17.1,142.3-24h0V102.21c-157.68,29.26-326.51,71.68-493,111.36C969,193.46,1066.11,172.38,1161.22,153.7Z" transform="translate(0.18 0.02)"/><path class="cls-33" d="M1161.22,153.7l.49-.1q30.86-6.06,61.39-11.74l.28-.06c48.26-9,95.83-17.1,142.3-24h0V102.21c-157.68,29.26-326.51,71.68-493,111.36C969,193.46,1066.11,172.38,1161.22,153.7Z" transform="translate(0.18 0.02)"/><path class="cls-34" d="M1161.22,153.7l.49-.1q30.86-6.06,61.39-11.74l.28-.06c48.26-9,95.83-17.1,142.3-24h0V102.21c-157.68,29.26-326.51,71.68-493,111.36C969,193.46,1066.11,172.38,1161.22,153.7Z" transform="translate(0.18 0.02)"/></svg>